<?xml version="1.0" encoding="utf-8"?>
<!-- Generator: Adobe Illustrator 16.0.0, SVG Export Plug-In . SVG Version: 6.00 Build 0)  -->
<!DOCTYPE svg PUBLIC "-//W3C//DTD SVG 1.1//EN" "http://www.w3.org/Graphics/SVG/1.1/DTD/svg11.dtd">
<svg version="1.1" id="off" xmlns="http://www.w3.org/2000/svg" xmlns:xlink="http://www.w3.org/1999/xlink" x="0px" y="0px"
	 width="232.727px" height="87.473px" viewBox="0 0 232.727 87.473" enable-background="new 0 0 232.727 87.473"
	 xml:space="preserve">
<text transform="matrix(1 0 0 1 420.9448 297.6401)" font-family="'AdobeMyungjoStd-Medium-KSCpc-EUC-H'" font-size="12">3c3d48</text>
<linearGradient id="SVGID_1_" gradientUnits="userSpaceOnUse" x1="22.4067" y1="45.4795" x2="211.2861" y2="45.4795" gradientTransform="matrix(-1 0 0 -1 233.6934 90.959)">
	<stop  offset="0.3" style="stop-color:#222126"/>
	<stop  offset="0.6" style="stop-color:#212126"/>
</linearGradient>
<path fill="url(#SVGID_1_)" stroke="#9D9DA3" stroke-miterlimit="10" d="M22.407,32.126c0-3.914,3.173-7.086,7.087-7.086H204.2
	c3.914,0,7.086,3.173,7.086,7.086v26.707c0,3.914-3.173,7.086-7.086,7.086H29.494c-3.914,0-7.087-3.173-7.087-7.086V32.126z"/>
<linearGradient id="SVGID_2_" gradientUnits="userSpaceOnUse" x1="49.9834" y1="25.6162" x2="90.7846" y2="66.4174">
	<stop  offset="0" style="stop-color:#2A292F"/>
	<stop  offset="1" style="stop-color:#3D3D49"/>
</linearGradient>
<path fill="url(#SVGID_2_)" stroke="#9D9DA3" stroke-miterlimit="10" d="M22.407,32.126c0-3.914,3.173-7.086,7.087-7.086H110.2
	c3.914,0,7.087,3.173,7.087,7.086v26.707c0,3.914-3.173,7.086-7.087,7.086H29.494c-3.914,0-7.087-3.173-7.087-7.086V32.126z"/>
</svg>
